<svg id="Layer_1" data-name="Layer 1" xmlns="http://www.w3.org/2000/svg" viewBox="0 0 412.01 348.99"><defs><style>.cls-1{fill:#1189ff;}</style></defs><polygon class="cls-1" points="251.49 241.3 155.28 335.79 155.2 335.72 141.93 348.99 9.89 216.94 27.07 199.75 142.08 314.74 217.48 241.34 251.49 241.3"/><polygon class="cls-1" points="200.2 318.35 279.35 241.3 313.36 241.27 217.15 335.77 200.2 318.35"/><polygon class="cls-1" points="150.51 257.43 133.33 274.62 0 141.29 17.18 124.11 17.3 124.22 129.96 9.45 150.4 26.15 34.5 141.42 150.51 257.43"/><polygon class="cls-1" points="314.09 108.31 218.4 13.28 218.33 13.35 205.13 0 72.35 131.32 89.44 148.59 205.09 34.25 280.08 108.08 314.09 108.31"/><polygon class="cls-1" points="217.39 70.76 247.75 104.81 215.97 104.81 198.27 85.76 217.39 70.76"/><path class="cls-1" d="M275.72,295.23A80.64,80.64,0,0,1,249.18,300c-13.08,0-23.85-3.33-32.31-11.41-7.43-7.18-12.05-18.72-12.05-32.18.13-25.77,17.82-44.62,46.8-44.62,10,0,17.82,2.18,21.54,4l-2.7,9.1c-4.61-2.05-10.38-3.72-19.1-3.72-21,0-34.74,13.08-34.74,34.75,0,21.92,13.2,34.87,33.33,34.87,7.31,0,12.31-1,14.87-2.31V262.66H247.26v-9h28.46Z" transform="translate(-68.99 -83.44)"/><path class="cls-1" d="M384.2,295.23A80.75,80.75,0,0,1,357.66,300c-13.08,0-23.85-3.33-32.32-11.41-7.43-7.18-12-18.72-12-32.18.13-25.77,17.82-44.62,46.8-44.62,10,0,17.82,2.18,21.54,4l-2.69,9.1c-4.62-2.05-10.39-3.72-19.11-3.72-21,0-34.74,13.08-34.74,34.75,0,21.92,13.21,34.87,33.33,34.87,7.31,0,12.31-1,14.88-2.31V262.66H355.73v-9H384.2Z" transform="translate(-68.99 -83.44)"/><path class="cls-1" d="M443.31,222.15H417v-9.49h64v9.49H454.59v76.93H443.31Z" transform="translate(-68.99 -83.44)"/></svg>