<svg id="Layer_1" data-name="Layer 1" xmlns="http://www.w3.org/2000/svg" viewBox="0 0 483.75 409.76"><defs><style>.cls-1{fill:#487fc1;}</style></defs><polygon class="cls-1" points="295.29 283.31 182.32 394.26 182.23 394.18 166.64 409.76 11.61 254.71 31.79 234.54 166.82 369.55 255.35 283.36 295.29 283.31"/><polygon class="cls-1" points="235.06 373.78 327.99 283.31 367.93 283.28 254.96 394.23 235.06 373.78"/><polygon class="cls-1" points="176.72 302.26 156.54 322.44 0 165.89 20.18 145.72 20.31 145.85 152.59 11.1 176.59 30.7 40.5 166.04 176.72 302.26"/><polygon class="cls-1" points="368.78 127.17 256.43 15.59 256.35 15.67 240.85 0 84.95 154.18 105.01 174.47 240.8 40.22 328.85 126.9 368.78 127.17"/><polygon class="cls-1" points="255.24 83.08 290.9 123.06 253.58 123.06 232.79 100.7 255.24 83.08"/><path class="cls-1" d="M975.39,292.6a94.44,94.44,0,0,1-31.16,5.57c-15.35,0-28-3.91-37.93-13.4-8.73-8.43-14.15-22-14.15-37.78.15-30.26,20.92-52.39,54.94-52.39,11.75,0,20.93,2.56,25.29,4.67L969.22,210c-5.42-2.41-12.19-4.37-22.43-4.37-24.68,0-40.79,15.35-40.79,40.8,0,25.74,15.5,40.94,39.14,40.94,8.58,0,14.45-1.2,17.46-2.71V254.36H942V243.83h33.41Z" transform="translate(-732.67 -43.94)"/><path class="cls-1" d="M1102.76,292.6a94.55,94.55,0,0,1-31.16,5.57c-15.36,0-28-3.91-37.94-13.4-8.73-8.43-14.15-22-14.15-37.78.15-30.26,20.92-52.39,55-52.39,11.74,0,20.92,2.56,25.28,4.67L1096.58,210c-5.42-2.41-12.19-4.37-22.43-4.37-24.68,0-40.79,15.35-40.79,40.8,0,25.74,15.51,40.94,39.14,40.94,8.58,0,14.45-1.2,17.46-2.71V254.36h-20.62V243.83h33.42Z" transform="translate(-732.67 -43.94)"/><path class="cls-1" d="M1172.16,206.8H1141.3V195.66h75.12V206.8h-31v90.32h-13.25Z" transform="translate(-732.67 -43.94)"/></svg>