<svg height="512" fill="#1189ff" viewBox="0 0 128 128" width="512" xmlns="http://www.w3.org/2000/svg"><g><path d="m110.8 87.514v-55.86a1.75 1.75 0 0 0 -1.75-1.75h-90.1a1.75 1.75 0 0 0 -1.75 1.75v55.86a1.75 1.75 0 0 0 1.75 1.75h90.1a1.75 1.75 0 0 0 1.75-1.75zm-3.5-1.75h-86.6v-52.364h86.6z"/><path d="m121.693 92.487h-4.168v-63.053a6.258 6.258 0 0 0 -6.252-6.252h-94.546a6.258 6.258 0 0 0 -6.252 6.252v63.053h-4.168a1.751 1.751 0 0 0 -1.75 1.75v4.331a6.257 6.257 0 0 0 6.25 6.25h106.386a6.256 6.256 0 0 0 6.25-6.25v-4.331a1.75 1.75 0 0 0 -1.75-1.75zm-107.718-63.053a2.754 2.754 0 0 1 2.752-2.752h94.546a2.754 2.754 0 0 1 2.752 2.752v63.053h-36.881a1.75 1.75 0 0 0 -1.75 1.75v.935h-22.788v-.935a1.751 1.751 0 0 0 -1.75-1.75h-36.881zm105.968 69.134a2.753 2.753 0 0 1 -2.75 2.75h-106.386a2.754 2.754 0 0 1 -2.75-2.75v-2.581h41.049v.935a1.75 1.75 0 0 0 1.75 1.75h26.288a1.75 1.75 0 0 0 1.75-1.75v-.935h41.049z"/></g></svg>