<svg id="object" fill="#1189ff" height="512" viewBox="0 0 32 32" width="512" xmlns="http://www.w3.org/2000/svg"><path d="m30 17a1 1 0 0 0 0-2h-3v-4h3a1 1 0 0 0 0-2h-3.1a5 5 0 0 0 -4.12-3.92v-3.08a1 1 0 0 0 -2 0v3h-3.78v-3a1 1 0 0 0 -2 0v3h-4.22v-3a1 1 0 0 0 -2 0v3.17a5 5 0 0 0 -3.68 3.83h-3.1a1 1 0 0 0 0 2h3v4h-3a1 1 0 0 0 0 2h3v4h-3a1 1 0 0 0 0 2h3.1a5 5 0 0 0 3.68 3.83v3.17a1 1 0 0 0 2 0v-3h4.22v3a1 1 0 0 0 2 0v-3h3.78v3a1 1 0 0 0 2 0v-3.08a5 5 0 0 0 4.12-3.92h3.1a1 1 0 0 0 0-2h-3v-4zm-8 8h-12a3 3 0 0 1 -3-3v-12a3 3 0 0 1 3-3h12a3 3 0 0 1 3 3v12a3 3 0 0 1 -3 3z"/><path d="m20 9h-8a3 3 0 0 0 -3 3v8a3 3 0 0 0 3 3h8a3 3 0 0 0 3-3v-8a3 3 0 0 0 -3-3zm1 11a1 1 0 0 1 -1 1h-8a1 1 0 0 1 -1-1v-8a1 1 0 0 1 1-1h8a1 1 0 0 1 1 1z"/></svg>