<svg   fill="#1189ff" clip-rule="evenodd" fill-rule="evenodd" height="512" stroke-linejoin="round" stroke-miterlimit="2" viewBox="0 0 512 512" width="512" xmlns="http://www.w3.org/2000/svg"><g transform="translate(-1280 -3200)"><g id="_43-Case" transform="matrix(8 0 0 8 1280 3200)"><g transform="translate(-160 -400)"><path d="m177 457v2c0 .552.448 1 1 1h4c.552 0 1-.448 1-1v-2h18v2c0 .552.448 1 1 1h4c.552 0 1-.448 1-1v-2h2c.552 0 1-.448 1-1v-51c0-.552-.448-1-1-1h-34c-.552 0-1 .448-1 1v51c0 .552.448 1 1 1zm28 0h-2v1h2zm-24 0h-2v1h2zm25.919-51h-29.838l2.7 3.375c.142.178.219.398.219.625v42c0 .265-.105.52-.293.707l-2.293 2.293h29.505l-2.7-3.375c-.142-.178-.219-.398-.219-.625v-41c0-.227.077-.447.219-.625zm-30.919 1.851v45.735l2-2v-41.235zm32 0-2 2.5v40.298l2 2.5zm-16 24.149c-5.519 0-10 4.481-10 10s4.481 10 10 10 10-4.481 10-10-4.481-10-10-10zm-.544 13.963c-.328.369-.522.76-.545 1.192-.046.858.486 1.775 1.498 2.835 1.198-.061 2.326-.385 3.329-.916-1.042-.274-1.818-.729-2.35-1.321-.443-.493-.741-1.087-.882-1.785-.166.021-.335.032-.506.032-.185 0-.366-.013-.544-.037zm-2.642-1.546c-.493.029-.908.169-1.23.458-.638.574-.91 1.598-.945 3.061.855.772 1.876 1.363 3.003 1.71-.544-.931-.771-1.801-.728-2.596.035-.663.244-1.294.638-1.887-.277-.215-.526-.466-.738-.746zm10.832-.059c-.931.544-1.801.771-2.596.728-.663-.035-1.294-.244-1.887-.638-.215.277-.466.526-.746.738.029.493.169.908.458 1.23.574.638 1.598.91 3.061.945.772-.855 1.363-1.876 1.71-3.003zm-11.609-2.902c-.369-.328-.76-.522-1.192-.545-.858-.046-1.775.486-2.835 1.498.061 1.198.385 2.326.916 3.329.274-1.042.729-1.818 1.321-2.35.493-.443 1.087-.741 1.785-.882-.021-.166-.032-.335-.032-.506 0-.185.013-.366.037-.544zm3.963-1.456c1.104 0 2 .896 2 2s-.896 2-2 2-2-.896-2-2 .896-2 2-2zm7.074-1.738c-.274 1.042-.729 1.818-1.321 2.35-.493.443-1.087.741-1.785.882.021.166.032.335.032.506 0 .185-.013.366-.037.544.369.328.76.522 1.192.545.858.046 1.775-.486 2.835-1.498-.061-1.198-.385-2.326-.916-3.329zm-13.01-1.623c-.772.855-1.363 1.876-1.71 3.003.931-.544 1.801-.771 2.596-.728.663.035 1.294.244 1.887.638.215-.277.466-.526.746-.738-.029-.493-.169-.908-.458-1.23-.574-.638-1.598-.91-3.061-.945zm8.294-2.285c.544.931.771 1.801.728 2.596-.035.663-.244 1.294-.638 1.887.277.215.526.466.738.746.493-.029.908-.169 1.23-.458.638-.574.91-1.598.945-3.061-.855-.772-1.876-1.363-3.003-1.71zm-2.767-.344c-1.198.061-2.326.385-3.329.916 1.042.274 1.818.729 2.35 1.321.443.493.741 1.087.882 1.785.166-.021.335-.032.506-.032.185 0 .366.013.544.037.328-.369.522-.76.545-1.192.046-.858-.486-1.775-1.498-2.835zm.409-25.01c-5.519 0-10 4.481-10 10s4.481 10 10 10 10-4.481 10-10-4.481-10-10-10zm-.544 13.963c-.328.369-.522.76-.545 1.192-.046.858.486 1.775 1.498 2.835 1.198-.061 2.326-.385 3.329-.916-1.042-.274-1.818-.729-2.35-1.321-.443-.493-.741-1.087-.882-1.785-.166.021-.335.032-.506.032-.185 0-.366-.013-.544-.037zm-2.642-1.546c-.493.029-.908.169-1.23.458-.638.574-.91 1.598-.945 3.061.855.772 1.876 1.363 3.003 1.71-.544-.931-.771-1.801-.728-2.596.035-.663.244-1.294.638-1.887-.277-.215-.526-.466-.738-.746zm10.832-.059c-.931.544-1.801.771-2.596.728-.663-.035-1.294-.244-1.887-.638-.215.277-.466.526-.746.738.029.493.169.908.458 1.23.574.638 1.598.91 3.061.945.772-.855 1.363-1.876 1.71-3.003zm-11.609-2.902c-.369-.328-.76-.522-1.192-.545-.858-.046-1.775.486-2.835 1.498.061 1.198.385 2.326.916 3.329.274-1.042.729-1.818 1.321-2.35.493-.443 1.087-.741 1.785-.882-.021-.166-.032-.335-.032-.506 0-.185.013-.366.037-.544zm3.963-1.456c1.104 0 2 .896 2 2s-.896 2-2 2-2-.896-2-2 .896-2 2-2zm7.074-1.738c-.274 1.042-.729 1.818-1.321 2.35-.493.443-1.087.741-1.785.882.021.166.032.335.032.506 0 .185-.013.366-.037.544.369.328.76.522 1.192.545.858.046 1.775-.486 2.835-1.498-.061-1.198-.385-2.326-.916-3.329zm-13.01-1.623c-.772.855-1.363 1.876-1.71 3.003.931-.544 1.801-.771 2.596-.728.663.035 1.294.244 1.887.638.215-.277.466-.526.746-.738-.029-.493-.169-.908-.458-1.23-.574-.638-1.598-.91-3.061-.945zm8.294-2.285c.544.931.771 1.801.728 2.596-.035.663-.244 1.294-.638 1.887.277.215.526.466.738.746.493-.029.908-.169 1.23-.458.638-.574.91-1.598.945-3.061-.855-.772-1.876-1.363-3.003-1.71zm-2.767-.344c-1.198.061-2.326.385-3.329.916 1.042.274 1.818.729 2.35 1.321.443.493.741 1.087.882 1.785.166-.021.335-.032.506-.032.185 0 .366.013.544.037.328-.369.522-.76.545-1.192.046-.858-.486-1.775-1.498-2.835z"/></g></g></g></svg>